<?xml version="1.0" standalone="no"?>
<!DOCTYPE svg PUBLIC "-//W3C//DTD SVG 20010904//EN"
 "http://www.w3.org/TR/2001/REC-SVG-20010904/DTD/svg10.dtd">
<svg version="1.0" xmlns="http://www.w3.org/2000/svg"
 width="1440.000000pt" height="1440.000000pt" viewBox="0 0 1440.000000 1440.000000"
 preserveAspectRatio="xMidYMid meet">
<metadata>
Created by potrace 1.11, written by Peter Selinger 2001-2013
</metadata>
<g transform="translate(0.000000,1440.000000) scale(0.100000,-0.100000)"
fill="#000000" stroke="none">
<path d="M900 7200 l0 -4390 885 0 885 0 0 1920 0 1920 1735 0 1735 0 0 -1917
0 -1918 2127 6 c2041 6 2374 10 2823 39 740 48 1261 266 1690 706 597 613 855
1562 645 2380 -181 705 -697 1231 -1460 1488 -60 21 -111 39 -113 41 -2 1 44
28 102 58 359 190 641 463 844 817 202 354 295 770 263 1182 -32 425 -163 768
-427 1118 -210 279 -469 491 -789 646 -332 160 -572 213 -1205 265 -104 9
-765 14 -2323 18 l-2177 6 0 -1722 0 -1723 -1735 0 -1735 0 0 1725 0 1725
-885 0 -885 0 0 -4390z m9280 2919 c362 -14 492 -39 690 -136 105 -51 123 -64
215 -157 90 -89 107 -113 153 -206 61 -123 88 -221 103 -375 35 -345 -81 -652
-322 -855 -168 -141 -410 -231 -699 -260 -117 -12 -1565 -32 -2045 -28 l-350
3 -3 1005 c-1 553 0 1011 3 1019 5 11 162 12 1008 7 551 -4 1112 -11 1247 -17z
m-525 -3479 c592 -12 877 -32 1112 -80 240 -50 426 -144 587 -299 219 -212
316 -462 316 -817 0 -392 -120 -663 -389 -876 -92 -74 -267 -160 -391 -193
-248 -66 -494 -76 -1857 -78 l-1108 -2 -3 1165 c-1 641 0 1171 3 1178 5 15
1004 16 1730 2z"/>
</g>
</svg>
